<svg width="13" height="13" viewBox="0 0 13 13" fill="none" xmlns="http://www.w3.org/2000/svg">
<path fill-rule="evenodd" clip-rule="evenodd" d="M7.14888 2.15407C7.39776 2.05214 7.66363 2 7.93154 2C8.19945 2 8.46532 2.05214 8.7142 2.15407C8.9631 2.25601 9.19099 2.40612 9.38417 2.59716C9.57743 2.78813 9.73232 3.01645 9.83856 3.26989C9.94487 3.52348 10 3.79641 10 4.07281C10 4.34921 9.94487 4.62214 9.83856 4.87573C9.7323 5.12921 9.57738 5.35755 9.38409 5.54854L7.01371 7.89149V8.91424H7.57951C7.84308 8.91424 8.05675 9.1381 8.05675 9.41425C8.05675 9.6904 7.84308 9.91426 7.57951 9.91426H7.01371V10.5C7.01371 10.7761 6.80004 11 6.53646 11C6.27289 11 6.05922 10.7761 6.05922 10.5V9.91426H5.4204C5.15682 9.91426 4.94315 9.6904 4.94315 9.41425C4.94315 9.1381 5.15682 8.91424 5.4204 8.91424H6.05922V7.96372L3.61576 5.54854C3.22508 5.16239 3 4.63222 3 4.07281C3 3.5134 3.22508 2.98323 3.61576 2.59708C4.00549 2.21186 4.52844 2.00015 5.06831 2.00015C5.59857 2.00015 6.1125 2.20439 6.49992 2.57668C6.68854 2.39537 6.90895 2.25234 7.14888 2.15407ZM8.72909 4.82114L6.59842 6.92715C6.57814 6.9244 6.55746 6.92297 6.53646 6.92297C6.49413 6.92297 6.45309 6.92875 6.41401 6.93959L4.27076 4.82114C4.06467 4.61743 3.95449 4.34758 3.95449 4.07281C3.95449 3.79804 4.06467 3.52819 4.27076 3.32448C4.47779 3.11985 4.76422 3.00018 5.06831 3.00018C5.37239 3.00018 5.65882 3.11985 5.86585 3.32448L6.17242 3.6275C6.3563 3.80925 6.64355 3.80925 6.82742 3.6275L7.13407 3.3244C7.23633 3.22329 7.35922 3.14164 7.49639 3.08546C7.6336 3.02927 7.78154 3.00003 7.93154 3.00003C8.08154 3.00003 8.22948 3.02927 8.36669 3.08546C8.50386 3.14164 8.62676 3.22329 8.72901 3.3244C8.83125 3.42542 8.91094 3.54392 8.96464 3.67202C9.0183 3.80004 9.04551 3.93614 9.04551 4.07281C9.04551 4.20948 9.0183 4.34558 8.96464 4.4736C8.91094 4.6017 8.83133 4.72012 8.72909 4.82114Z" fill="#8951FF"/>
</svg>